<?xml version="1.0" ?>
<!-- Uploaded to: SVG Repo, www.svgrepo.com, Generator: SVG Repo Mixer Tools -->
<svg fill="#000000" width="800px" height="800px" viewBox="0 0 512 512" id="Layer_1" version="1.1" xml:space="preserve" xmlns="http://www.w3.org/2000/svg" xmlns:xlink="http://www.w3.org/1999/xlink">
<g>
<g>
<path d="M385.7,469.4H126.3c-11.1,0-20.1-9.1-20.1-20.1V345.6c0-39.1,16.7-76.6,45.8-102.7c6-5.4,9.5-13,9.5-20.9v-83.8    c0-52,41.5-95.2,93.5-95.7c52.5-0.5,95.5,42.1,95.5,94.5v85c0,7.9,3.5,15.5,9.5,20.9l0,0c29.1,26.2,45.8,63.6,45.8,102.7v103.7    C405.8,460.4,396.7,469.4,385.7,469.4z M133.8,454.4h244.3c7,0,12.6-5.7,12.6-12.6v-96.2c0-34.9-14.9-68.3-40.8-91.6    c-9.2-8.3-14.5-20-14.5-32v-85c0-44.2-36.2-80-80.4-79.5c-43.7,0.5-78.6,36.8-78.6,80.5v84c0,12.1-5.3,23.8-14.5,32    c-25.9,23.3-40.8,56.7-40.8,91.6v96.2C121.2,448.8,126.9,454.4,133.8,454.4z"/>
</g>
<g>
<path d="M255.8,249.2c-38.5-0.5-69.3-32.5-69.3-71v-36.9c0-11.7,9.6-21.3,21.3-21.3h97.5c11.7,0,21.3,9.6,21.3,21.3v37.8    C326.7,218.1,294.7,249.7,255.8,249.2z M201.5,148.9v29.4c0,30.3,24,55.5,54.3,55.9c30.8,0.4,55.9-24.4,55.9-55.1v-30.3    c0-7.6-6.2-13.8-13.8-13.8h-82.5C207.7,135,201.5,141.2,201.5,148.9z"/>
</g>
<g>
<path d="M256,469.4c-4.1,0-7.5-3.4-7.5-7.5v-127c0-4.1,3.4-7.5,7.5-7.5s7.5,3.4,7.5,7.5v127C263.5,466,260.1,469.4,256,469.4z"/>
</g>
<g>
<path d="M256,312.9c-4.1,0-7.5-3.4-7.5-7.5v-30.1c0-4.1,3.4-7.5,7.5-7.5s7.5,3.4,7.5,7.5v30.1C263.5,309.6,260.1,312.9,256,312.9z    "/>
</g>
<g>
<g>
<path d="M349,469.4c-4.1,0-7.5-3.4-7.5-7.5V393c0-4.1,3.4-7.5,7.5-7.5s7.5,3.4,7.5,7.5v68.9C356.5,466,353.1,469.4,349,469.4z"/>
</g>
<g>
<path d="M163,469.4c-4.1,0-7.5-3.4-7.5-7.5V393c0-4.1,3.4-7.5,7.5-7.5s7.5,3.4,7.5,7.5v68.9C170.5,466,167.1,469.4,163,469.4z"/>
</g>
</g>
<g>
<path d="M303.3,113.7h-94.7c-4.1,0-7.5-3.4-7.5-7.5s3.4-7.5,7.5-7.5h94.7c4.1,0,7.5,3.4,7.5,7.5S307.5,113.7,303.3,113.7z"/>
</g>
</g>
</svg>