<?xml version="1.0" encoding="iso-8859-1"?>
<!-- Uploaded to: SVG Repo, www.svgrepo.com, Generator: SVG Repo Mixer Tools -->
<!DOCTYPE svg PUBLIC "-//W3C//DTD SVG 1.1//EN" "http://www.w3.org/Graphics/SVG/1.1/DTD/svg11.dtd">
<svg fill="#000000" version="1.1" id="Capa_1" xmlns="http://www.w3.org/2000/svg" xmlns:xlink="http://www.w3.org/1999/xlink" 
	 width="800px" height="800px" viewBox="0 0 32.002 32.001"
	 xml:space="preserve">
<g>
	<g>
		<path d="M29.252,10.038c-2.223-1.349-8.644-3.228-8.848-2.823c-0.207,0.405,1.125,0.763,1.125,0.763
			c1.602-0.198,5.194,1.271,7.393,2.606c1.101,0.668,1.896,5.323,1.535,5.423c-0.36,0.101-6.836,2.533-7.787,2.822
			c-1.301,0.462-2.272,0.842-4.254,0.842c-1.98,0-3.562-0.359-4.31-0.651c-1.729-0.679-10.424-2.83-10.424-2.83
			s0.778-4.348,1.071-4.826c0.292-0.479-0.107-1.783-0.027-2.103c0.08-0.318,1.436-1.144,1.436-1.144S6.675,9.335,6.88,9.299
			c0.207-0.037,3.069-0.233,3.343-0.27c0.274-0.037-0.006-2.468-0.395-2.454C5.29,6.947,3.135,9.106,2.334,10.521V10.52
			c0,0-1.671,6.025-2.07,7.039c-0.399,1.012-0.358,2.445,0.2,3.695c0.366,0.819,2.359,1.079,3.69,1.16
			c1.376,2.086,7.743,3.729,9.925,2.695c2.194-1.039,3.096-3.903,3.286-4.149c0.139-0.182,0.812-0.141,1.09-0.147
			c0.276-0.008,0.858,0.035,0.964,0.167c0.088,0.108,0.374,2.623,1.376,3.707c1.463,1.437,8.213-1.074,9.688-2.786
			c1.197-1.395,1.51-5.445,1.51-5.445C32.078,16.272,31.613,11.472,29.252,10.038z M13.469,24.779
			c-1.743,0.267-6.626-0.215-8.302-1.729c-0.105-0.096-0.507-0.493-0.581-0.613c0.27,0.012,0.486,0.015,0.624,0.016v0.004h0.061
			l-0.012-2.913l1.168-0.767l-2.671-0.204c0.029-0.371,0.09-0.667,0.166-0.842c0.438-1.224,5.18,0.206,6.193,0.488
			c1.014,0.282,4.644,1.453,5.428,1.934C16.328,20.627,15.209,24.513,13.469,24.779z M30.07,21.829
			c-1.576,1.965-7.859,3.182-8.604,2.421c-0.743-0.759-1.03-2.609-0.552-3.531c0.407-0.781,2.229-1.786,3.855-2.315
			c0.218-0.062,4.713-1.771,5.983-1.254C31.508,17.479,31.465,20.163,30.07,21.829z"/>
		<path d="M11.26,18.835v-0.007H6.542l-1.169,0.769l0.013,2.857h4.918v0.001l0.001-0.001h0.008v-0.008l0.955-0.986l-0.001-2.631
			L11.26,18.835z M5.58,22.263l0.911-0.816h3.812l0.001,0.816H5.58z M6.543,19.966h3.758v1.359H6.558L6.543,19.966z M10.462,22.062
			v-0.615h0.597L10.462,22.062z M10.462,21.327l-0.001-1.409l0.646-0.686l0.001,2.095H10.462z M10.376,19.776H6.542L6.535,18.99
			h4.582L10.376,19.776z"/>
	</g>
</g>
</svg>