<?xml version="1.0" encoding="iso-8859-1"?>
<!-- Uploaded to: SVG Repo, www.svgrepo.com, Generator: SVG Repo Mixer Tools -->
<svg fill="#000000" height="800px" width="800px" version="1.1" id="Layer_1" xmlns="http://www.w3.org/2000/svg" xmlns:xlink="http://www.w3.org/1999/xlink" 
	 viewBox="0 0 512.003 512.003" xml:space="preserve">
<g>
	<g>
		<path d="M473.931,461.367v-19.303c0-28.429-18.158-53.46-45.183-62.284c-0.083-0.027-0.165-0.052-0.249-0.076l-117.272-34.196
			c-10.603-4.517-17.262-15.198-16.626-26.727l18.331-225.778h14.019c9.327,0,16.913-7.587,16.913-16.912V16.912
			C343.864,7.587,336.276,0,326.95,0h-51.194c-4.522,0-8.188,3.666-8.188,8.188c0,4.523,3.666,8.188,8.188,8.188h51.194
			c0.296,0,0.537,0.241,0.537,0.536v59.176c0,0.296-0.241,0.536-0.537,0.536h-21.57H58.175H39.334c-0.296,0-0.537-0.241-0.537-0.536
			V54.689h111.389c4.522,0,8.188-3.665,8.188-8.188s-3.666-8.188-8.188-8.188H38.797V16.912c0-0.295,0.241-0.536,0.537-0.536H245.99
			c4.522,0,8.188-3.665,8.188-8.188c0-4.522-3.666-8.188-8.188-8.188H39.334C30.008,0,22.42,7.587,22.42,16.912v59.176
			c0,9.326,7.588,16.912,16.913,16.912h11.491l16.068,148.649c0.486,4.497,4.529,7.746,9.021,7.261
			c4.496-0.486,7.747-4.525,7.26-9.021L67.296,93.002H296.5l-18.231,224.554c-0.004,0.062-0.009,0.123-0.013,0.186
			c-1.089,18.682,9.819,35.995,27.141,43.078c0.264,0.108,0.534,0.201,0.807,0.282l117.578,34.285
			c20.205,6.653,33.771,25.395,33.771,46.678v18.66H53.084v-30.684c0-7.12,1.258-14.114,3.738-20.787l31.937-85.923
			c0.118-0.32,0.217-0.646,0.296-0.978c1.259-5.351,1.685-10.844,1.265-16.323c-0.007-0.086-0.014-0.171-0.023-0.255l-3.871-35.815
			c-0.486-4.497-4.526-7.749-9.021-7.261c-4.496,0.486-7.747,4.525-7.26,9.021l3.857,35.682c0.263,3.6,0.001,7.207-0.779,10.73
			L41.473,403.55c-3.161,8.505-4.763,17.419-4.763,26.494v31.702c-8.282,2.685-14.287,10.411-14.287,19.512v10.216
			c0,11.32,9.284,20.53,20.696,20.53h119.929c4.522,0,8.188-3.665,8.188-8.188v-4.952l74.339,13.018
			c0.466,0.081,0.939,0.122,1.413,0.122h221.899c11.412,0,20.696-9.21,20.696-20.53v-10.216
			C489.58,471.664,482.906,463.61,473.931,461.367z M473.204,491.47L473.204,491.47c0,2.29-1.938,4.154-4.32,4.154H247.696
			l-83.238-14.577c-2.384-0.416-4.828,0.24-6.679,1.797c-1.852,1.556-2.922,3.85-2.922,6.269v6.511H43.117
			c-2.382,0-4.32-1.864-4.32-4.154v-10.216c0-2.292,1.938-4.155,4.32-4.155h1.78h420.846h3.141c2.382,0,4.32,1.864,4.32,4.155
			V491.47z"/>
	</g>
</g>
</svg>