<svg width="479" height="114" viewBox="0 0 479 114" fill="none" xmlns="http://www.w3.org/2000/svg">
<path d="M459.427 56.4238H22.0625" stroke="#F2F2F2" stroke-width="4"/>
<path d="M141.206 15.2597V98.3892" stroke="#F2F2F2" stroke-width="4"/>
<path d="M19.963 36.1651L23.1802 35.9557C23.2255 37.2304 23.4004 38.0904 23.7067 38.5371C24.2004 39.2624 25.1119 39.6237 26.4427 39.6237C27.549 39.6237 28.3484 39.3784 28.8416 38.8837C29.3354 38.3917 29.5812 37.7971 29.5812 37.1011C29.5812 36.4957 29.3796 35.9851 28.976 35.5651C28.6922 35.2597 27.9124 34.7624 26.6384 34.0731C25.3646 33.3851 24.4332 32.8117 23.8468 32.3517C23.2604 31.8904 22.799 31.2944 22.463 30.5597C22.1266 29.8251 21.9583 28.9651 21.9583 27.9797C21.9583 26.2597 22.4588 24.8317 23.4604 23.6984C24.4614 22.5637 25.9114 21.9971 27.8104 21.9971C29.738 21.9971 31.2312 22.5597 32.289 23.6851C33.3463 24.8104 33.9275 26.3064 34.0327 28.1744L30.7922 28.3557C30.7104 27.3797 30.4266 26.6317 29.94 26.1104C29.4547 25.5904 28.737 25.3291 27.788 25.3291C26.8536 25.3291 26.1864 25.5344 25.7864 25.9437C25.387 26.3531 25.187 26.8691 25.187 27.4904C25.187 28.0771 25.3698 28.5611 25.7364 28.9411C26.102 29.3317 26.9135 29.8677 28.1692 30.5451C30.0599 31.5584 31.263 32.3811 31.7786 33.0144C32.549 33.9437 32.9332 35.1384 32.9332 36.5984C32.9332 38.4011 32.3599 39.9424 31.213 41.2199C30.0656 42.4985 28.4682 43.1387 26.4198 43.1387C25.0078 43.1387 23.7838 42.8423 22.749 42.2532C21.7135 41.6627 20.9827 40.8423 20.5567 39.7917C20.1307 38.7411 19.9327 37.5331 19.963 36.1651Z" fill="#F2F2F2"/>
<path d="M19.963 36.1651L23.1802 35.9557C23.2255 37.2304 23.4004 38.0904 23.7067 38.5371C24.2004 39.2624 25.1119 39.6237 26.4427 39.6237C27.549 39.6237 28.3484 39.3784 28.8416 38.8837C29.3354 38.3917 29.5812 37.7971 29.5812 37.1011C29.5812 36.4957 29.3796 35.9851 28.976 35.5651C28.6922 35.2597 27.9124 34.7624 26.6384 34.0731C25.3646 33.3851 24.4332 32.8117 23.8468 32.3517C23.2604 31.8904 22.799 31.2944 22.463 30.5597C22.1266 29.8251 21.9583 28.9651 21.9583 27.9797C21.9583 26.2597 22.4588 24.8317 23.4604 23.6984C24.4614 22.5637 25.9114 21.9971 27.8104 21.9971C29.738 21.9971 31.2312 22.5597 32.289 23.6851C33.3463 24.8104 33.9275 26.3064 34.0327 28.1744L30.7922 28.3557C30.7104 27.3797 30.4266 26.6317 29.94 26.1104C29.4547 25.5904 28.737 25.3291 27.788 25.3291C26.8536 25.3291 26.1864 25.5344 25.7864 25.9437C25.387 26.3531 25.187 26.8691 25.187 27.4904C25.187 28.0771 25.3698 28.5611 25.7364 28.9411C26.102 29.3317 26.9135 29.8677 28.1692 30.5451C30.0599 31.5584 31.263 32.3811 31.7786 33.0144C32.549 33.9437 32.9332 35.1384 32.9332 36.5984C32.9332 38.4011 32.3599 39.9424 31.213 41.2199C30.0656 42.4985 28.4682 43.1387 26.4198 43.1387C25.0078 43.1387 23.7838 42.8423 22.749 42.2532C21.7135 41.6627 20.9827 40.8423 20.5567 39.7917C20.1307 38.7411 19.9327 37.5331 19.963 36.1651Z" stroke="#F2F2F2" stroke-width="0.4"/>
<path d="M38.9321 42.7896L42.3732 22.3454H45.7477L42.3175 42.7896H38.9321Z" fill="#F2F2F2"/>
<path d="M38.9321 42.7896L42.3732 22.3454H45.7477L42.3175 42.7896H38.9321Z" stroke="#F2F2F2" stroke-width="0.4"/>
<path d="M62.4528 42.7896H59.3033L54.8632 29.0534L52.5539 42.7896H49.4033L52.834 22.3454H55.9955L60.4465 36.0267L62.7444 22.3454H65.8835L62.4528 42.7896Z" fill="#F2F2F2"/>
<path d="M62.4528 42.7896H59.3033L54.8632 29.0534L52.5539 42.7896H49.4033L52.834 22.3454H55.9955L60.4465 36.0267L62.7444 22.3454H65.8835L62.4528 42.7896Z" stroke="#F2F2F2" stroke-width="0.4"/>
<path d="M80.0996 34.8694L79.147 26.6414L75.1777 34.8694H80.0996ZM80.5148 38.2707H74.0006L72.0277 42.7896H68.5522L77.846 22.3454H81.6017L84.27 42.7896H81.0637L80.5148 38.2707Z" fill="#F2F2F2"/>
<path d="M80.0996 34.8694L79.147 26.6414L75.1777 34.8694H80.0996ZM80.5148 38.2707H74.0006L72.0277 42.7896H68.5522L77.846 22.3454H81.6017L84.27 42.7896H81.0637L80.5148 38.2707Z" stroke="#F2F2F2" stroke-width="0.4"/>
<path d="M99.1822 42.7896H95.9759L95.3817 25.7068L92.7697 42.7896H89.7202L93.1509 22.3454H97.9713L98.4759 36.6681L104.081 22.3454H108.958L105.516 42.7896H102.433L105.673 25.8321L99.1822 42.7896Z" fill="#F2F2F2"/>
<path d="M99.1822 42.7896H95.9759L95.3817 25.7068L92.7697 42.7896H89.7202L93.1509 22.3454H97.9713L98.4759 36.6681L104.081 22.3454H108.958L105.516 42.7896H102.433L105.673 25.8321L99.1822 42.7896Z" stroke="#F2F2F2" stroke-width="0.4"/>
<path d="M122.166 42.7896H118.959L118.365 25.7068L115.753 42.7896H112.703L116.134 22.3454H120.955L121.459 36.6681L127.065 22.3454H131.942L128.499 42.7896H125.417L128.656 25.8321L122.166 42.7896Z" fill="#F2F2F2"/>
<path d="M122.166 42.7896H118.959L118.365 25.7068L115.753 42.7896H112.703L116.134 22.3454H120.955L121.459 36.6681L127.065 22.3454H131.942L128.499 42.7896H125.417L128.656 25.8321L122.166 42.7896Z" stroke="#F2F2F2" stroke-width="0.4"/>
<path d="M149.159 91.0024L152.59 70.5587H164.775L164.205 73.9759H155.403L154.619 78.6202H163.128L162.555 82.0374H154.047L153.015 87.5868H162.579L161.995 91.0024H149.159Z" fill="#F2F2F2"/>
<path d="M149.159 91.0024L152.59 70.5587H164.775L164.205 73.9759H155.403L154.619 78.6202H163.128L162.555 82.0374H154.047L153.015 87.5868H162.579L161.995 91.0024H149.159Z" stroke="#F2F2F2" stroke-width="0.4"/>
<path d="M180.551 91.0024H177.402L172.962 77.2682L170.653 91.0024H167.502L170.933 70.5587H174.094L178.545 84.24L180.843 70.5587H183.982L180.551 91.0024Z" fill="#F2F2F2"/>
<path d="M180.551 91.0024H177.402L172.962 77.2682L170.653 91.0024H167.502L170.933 70.5587H174.094L178.545 84.24L180.843 70.5587H183.982L180.551 91.0024Z" stroke="#F2F2F2" stroke-width="0.4"/>
<path d="M195.621 80.0843H202.975L201.495 88.8562C200.629 89.5521 199.565 90.1442 198.306 90.6264C197.047 91.1092 195.763 91.3521 194.455 91.3521C192.422 91.3521 190.863 90.78 189.779 89.6374C188.301 88.0748 187.561 85.8119 187.561 82.8452C187.561 80.8562 187.878 78.9494 188.514 77.1281C189.275 74.9349 190.359 73.2322 191.765 72.0239C193.169 70.816 194.821 70.2119 196.719 70.2119C198.618 70.2119 200.141 70.7603 201.289 71.8562C202.435 72.9535 203.195 74.552 203.57 76.6546L200.419 77.0999C200.142 75.9467 199.695 75.0775 199.079 74.492C198.463 73.9067 197.687 73.6134 196.753 73.6134C195.662 73.6134 194.661 73.9666 193.749 74.6734C192.837 75.38 192.123 76.4723 191.607 77.951C191.091 79.4297 190.834 81.0426 190.834 82.7895C190.834 84.5093 191.147 85.78 191.775 86.6024C192.403 87.427 193.323 87.8374 194.534 87.8374C195.258 87.8374 196.002 87.7108 196.765 87.4546C197.526 87.1988 198.185 86.8931 198.738 86.5415L199.242 83.4999H195.05L195.621 80.0843Z" fill="#F2F2F2"/>
<path d="M195.621 80.0843H202.975L201.495 88.8562C200.629 89.5521 199.565 90.1442 198.306 90.6264C197.047 91.1092 195.763 91.3521 194.455 91.3521C192.422 91.3521 190.863 90.78 189.779 89.6374C188.301 88.0748 187.561 85.8119 187.561 82.8452C187.561 80.8562 187.878 78.9494 188.514 77.1281C189.275 74.9349 190.359 73.2322 191.765 72.0239C193.169 70.816 194.821 70.2119 196.719 70.2119C198.618 70.2119 200.141 70.7603 201.289 71.8562C202.435 72.9535 203.195 74.552 203.57 76.6546L200.419 77.0999C200.142 75.9467 199.695 75.0775 199.079 74.492C198.463 73.9067 197.687 73.6134 196.753 73.6134C195.662 73.6134 194.661 73.9666 193.749 74.6734C192.837 75.38 192.123 76.4723 191.607 77.951C191.091 79.4297 190.834 81.0426 190.834 82.7895C190.834 84.5093 191.147 85.78 191.775 86.6024C192.403 87.427 193.323 87.8374 194.534 87.8374C195.258 87.8374 196.002 87.7108 196.765 87.4546C197.526 87.1988 198.185 86.8931 198.738 86.5415L199.242 83.4999H195.05L195.621 80.0843Z" stroke="#F2F2F2" stroke-width="0.4"/>
<path d="M207.125 91.0024L210.566 70.5587H213.941L210.51 91.0024H207.125Z" fill="#F2F2F2"/>
<path d="M207.125 91.0024L210.566 70.5587H213.941L210.51 91.0024H207.125Z" stroke="#F2F2F2" stroke-width="0.4"/>
<path d="M230.187 91.0024H227.037L222.597 77.2682L220.287 91.0024H217.137L220.569 70.5587H223.73L228.181 84.24L230.478 70.5587H233.618L230.187 91.0024Z" fill="#F2F2F2"/>
<path d="M230.187 91.0024H227.037L222.597 77.2682L220.287 91.0024H217.137L220.569 70.5587H223.73L228.181 84.24L230.478 70.5587H233.618L230.187 91.0024Z" stroke="#F2F2F2" stroke-width="0.4"/>
<path d="M237.026 91.0024L240.458 70.5587H252.645L252.073 73.9759H243.273L242.487 78.6202H250.997L250.425 82.0374H241.915L240.883 87.5868H250.446L249.863 91.0024H237.026Z" fill="#F2F2F2"/>
<path d="M237.026 91.0024L240.458 70.5587H252.645L252.073 73.9759H243.273L242.487 78.6202H250.997L250.425 82.0374H241.915L240.883 87.5868H250.446L249.863 91.0024H237.026Z" stroke="#F2F2F2" stroke-width="0.4"/>
<path d="M254.821 91.0024L258.251 70.5587H270.438L269.866 73.9759H261.065L260.281 78.6202H268.79L268.218 82.0374H259.709L258.677 87.5868H268.241L267.658 91.0024H254.821Z" fill="#F2F2F2"/>
<path d="M254.821 91.0024L258.251 70.5587H270.438L269.866 73.9759H261.065L260.281 78.6202H268.79L268.218 82.0374H259.709L258.677 87.5868H268.241L267.658 91.0024H254.821Z" stroke="#F2F2F2" stroke-width="0.4"/>
<path d="M278.167 79.4707H279.96C281.776 79.4707 282.983 79.3358 283.576 79.0655C284.171 78.7963 284.636 78.3748 284.972 77.7972C285.308 77.2202 285.478 76.616 285.478 75.9854C285.478 75.24 285.234 74.6827 284.748 74.3108C284.448 74.0879 283.803 73.9759 282.808 73.9759H279.087L278.167 79.4707ZM276.227 91.0024H272.842L276.283 70.5587H283.583C284.838 70.5587 285.815 70.7202 286.514 71.0415C287.214 71.3614 287.776 71.9494 288.207 72.8056C288.636 73.6598 288.851 74.6972 288.851 75.9144C288.851 77.6535 288.434 79.0879 287.596 80.216C286.759 81.3467 285.492 82.0452 283.795 82.316C284.228 82.7988 284.636 83.4348 285.018 84.2254C285.772 85.8239 286.612 88.0843 287.54 91.0024H283.907C283.615 89.851 283.044 88.051 282.192 85.6051C281.728 84.2868 281.235 83.3988 280.712 82.9426C280.391 82.6734 279.83 82.539 279.031 82.539H277.652L276.227 91.0024Z" fill="#F2F2F2"/>
<path d="M278.167 79.4707H279.96C281.776 79.4707 282.983 79.3358 283.576 79.0655C284.171 78.7963 284.636 78.3748 284.972 77.7972C285.308 77.2202 285.478 76.616 285.478 75.9854C285.478 75.24 285.234 74.6827 284.748 74.3108C284.448 74.0879 283.803 73.9759 282.808 73.9759H279.087L278.167 79.4707ZM276.227 91.0024H272.842L276.283 70.5587H283.583C284.838 70.5587 285.815 70.7202 286.514 71.0415C287.214 71.3614 287.776 71.9494 288.207 72.8056C288.636 73.6598 288.851 74.6972 288.851 75.9144C288.851 77.6535 288.434 79.0879 287.596 80.216C286.759 81.3467 285.492 82.0452 283.795 82.316C284.228 82.7988 284.636 83.4348 285.018 84.2254C285.772 85.8239 286.612 88.0843 287.54 91.0024H283.907C283.615 89.851 283.044 88.051 282.192 85.6051C281.728 84.2868 281.235 83.3988 280.712 82.9426C280.391 82.6734 279.83 82.539 279.031 82.539H277.652L276.227 91.0024Z" stroke="#F2F2F2" stroke-width="0.4"/>
<path d="M292.15 91.0024L295.591 70.5587H298.966L295.535 91.0024H292.15Z" fill="#F2F2F2"/>
<path d="M292.15 91.0024L295.591 70.5587H298.966L295.535 91.0024H292.15Z" stroke="#F2F2F2" stroke-width="0.4"/>
<path d="M314.752 91.0024H311.603L307.163 77.2682L304.852 91.0024H301.703L305.134 70.5587H308.295L312.746 84.24L315.044 70.5587H318.182L314.752 91.0024Z" fill="#F2F2F2"/>
<path d="M314.752 91.0024H311.603L307.163 77.2682L304.852 91.0024H301.703L305.134 70.5587H308.295L312.746 84.24L315.044 70.5587H318.182L314.752 91.0024Z" stroke="#F2F2F2" stroke-width="0.4"/>
<path d="M330.739 80.0843H338.094L336.614 88.8562C335.747 89.5521 334.683 90.1442 333.424 90.6264C332.164 91.1092 330.882 91.3521 329.574 91.3521C327.54 91.3521 325.982 90.78 324.898 89.6374C323.419 88.0748 322.678 85.8119 322.678 82.8452C322.678 80.8562 322.996 78.9494 323.631 77.1281C324.394 74.9349 325.478 73.2322 326.883 72.0239C328.287 70.816 329.94 70.2119 331.838 70.2119C333.736 70.2119 335.259 70.7603 336.406 71.8562C337.552 72.9535 338.314 74.552 338.687 76.6546L335.538 77.0999C335.262 75.9467 334.815 75.0775 334.198 74.492C333.582 73.9067 332.806 73.6134 331.872 73.6134C330.779 73.6134 329.778 73.9666 328.867 74.6734C327.955 75.38 327.242 76.4723 326.726 77.951C326.211 79.4297 325.952 81.0426 325.952 82.7895C325.952 84.5093 326.267 85.78 326.894 86.6024C327.522 87.427 328.44 87.8374 329.652 87.8374C330.378 87.8374 331.12 87.7108 331.883 87.4546C332.646 87.1988 333.303 86.8931 333.856 86.5415L334.36 83.4999H330.167L330.739 80.0843Z" fill="#F2F2F2"/>
<path d="M330.739 80.0843H338.094L336.614 88.8562C335.747 89.5521 334.683 90.1442 333.424 90.6264C332.164 91.1092 330.882 91.3521 329.574 91.3521C327.54 91.3521 325.982 90.78 324.898 89.6374C323.419 88.0748 322.678 85.8119 322.678 82.8452C322.678 80.8562 322.996 78.9494 323.631 77.1281C324.394 74.9349 325.478 73.2322 326.883 72.0239C328.287 70.816 329.94 70.2119 331.838 70.2119C333.736 70.2119 335.259 70.7603 336.406 71.8562C337.552 72.9535 338.314 74.552 338.687 76.6546L335.538 77.0999C335.262 75.9467 334.815 75.0775 334.198 74.492C333.582 73.9067 332.806 73.6134 331.872 73.6134C330.779 73.6134 329.778 73.9666 328.867 74.6734C327.955 75.38 327.242 76.4723 326.726 77.951C326.211 79.4297 325.952 81.0426 325.952 82.7895C325.952 84.5093 326.267 85.78 326.894 86.6024C327.522 87.427 328.44 87.8374 329.652 87.8374C330.378 87.8374 331.12 87.7108 331.883 87.4546C332.646 87.1988 333.303 86.8931 333.856 86.5415L334.36 83.4999H330.167L330.739 80.0843Z" stroke="#F2F2F2" stroke-width="0.4"/>
<path d="M348.168 91.0024L351.61 70.5587H354.986L352.126 87.5868H360.491L359.918 91.0024H348.168Z" fill="#F2F2F2"/>
<path d="M348.168 91.0024L351.61 70.5587H354.986L352.126 87.5868H360.491L359.918 91.0024H348.168Z" stroke="#F2F2F2" stroke-width="0.4"/>
<path d="M365.655 91.0024L369.098 70.5587H372.471L369.042 91.0024H365.655Z" fill="#F2F2F2"/>
<path d="M365.655 91.0024L369.098 70.5587H372.471L369.042 91.0024H365.655Z" stroke="#F2F2F2" stroke-width="0.4"/>
<path d="M385.557 91.0024H382.351L381.758 73.9202L379.146 91.0024H376.097L379.526 70.5587H384.347L384.851 84.8811L390.457 70.5587H395.333L391.891 91.0024H388.809L392.05 74.0452L385.557 91.0024Z" fill="#F2F2F2"/>
<path d="M385.557 91.0024H382.351L381.758 73.9202L379.146 91.0024H376.097L379.526 70.5587H384.347L384.851 84.8811L390.457 70.5587H395.333L391.891 91.0024H388.809L392.05 74.0452L385.557 91.0024Z" stroke="#F2F2F2" stroke-width="0.4"/>
<path d="M398.553 91.0024L401.997 70.5587H405.37L401.941 91.0024H398.553Z" fill="#F2F2F2"/>
<path d="M398.553 91.0024L401.997 70.5587H405.37L401.941 91.0024H398.553Z" stroke="#F2F2F2" stroke-width="0.4"/>
<path d="M415.698 91.0024H412.312L415.182 73.9759H410.362L410.934 70.5587H423.883L423.311 73.9759H418.556L415.698 91.0024Z" fill="#F2F2F2"/>
<path d="M415.698 91.0024H412.312L415.182 73.9759H410.362L410.934 70.5587H423.883L423.311 73.9759H418.556L415.698 91.0024Z" stroke="#F2F2F2" stroke-width="0.4"/>
<path d="M426.497 91.0024L429.927 70.5587H442.113L441.542 73.9759H432.741L431.955 78.6202H440.465L439.893 82.0374H431.385L430.353 87.5868H439.915L439.333 91.0024H426.497Z" fill="#F2F2F2"/>
<path d="M426.497 91.0024L429.927 70.5587H442.113L441.542 73.9759H432.741L431.955 78.6202H440.465L439.893 82.0374H431.385L430.353 87.5868H439.915L439.333 91.0024H426.497Z" stroke="#F2F2F2" stroke-width="0.4"/>
<path d="M448.579 87.7119H450.295C451.535 87.7119 452.435 87.6176 452.991 87.427C453.549 87.2358 454.058 86.88 454.522 86.3598C455.187 85.6051 455.747 84.6015 456.203 83.3467C456.659 82.0936 456.886 80.6134 456.886 78.9134C456.886 77.463 456.698 76.3734 456.322 75.6426C455.943 74.9134 455.478 74.428 454.926 74.1854C454.537 74.0176 453.845 73.9348 452.851 73.9348H450.889L448.579 87.7119ZM444.645 91.0024L448.087 70.5587H452.515C453.749 70.5587 454.537 70.5827 454.881 70.6296C455.559 70.7119 456.167 70.8843 456.702 71.1452C457.237 71.4051 457.722 71.7691 458.161 72.24C458.597 72.7108 458.974 73.2734 459.291 73.9348C459.609 74.5947 459.854 75.3546 460.026 76.2134C460.198 77.0748 460.283 78.016 460.283 79.039C460.283 81.2415 459.945 83.1963 459.27 84.9024C458.593 86.6082 457.743 87.963 456.719 88.9682C455.935 89.7478 454.922 90.3239 453.681 90.6972C452.978 90.9015 451.898 91.0024 450.441 91.0024H444.645Z" fill="#F2F2F2"/>
<path d="M448.579 87.7119H450.295C451.535 87.7119 452.435 87.6176 452.991 87.427C453.549 87.2358 454.058 86.88 454.522 86.3598C455.187 85.6051 455.747 84.6015 456.203 83.3467C456.659 82.0936 456.886 80.6134 456.886 78.9134C456.886 77.463 456.698 76.3734 456.322 75.6426C455.943 74.9134 455.478 74.428 454.926 74.1854C454.537 74.0176 453.845 73.9348 452.851 73.9348H450.889L448.579 87.7119ZM444.645 91.0024L448.087 70.5587H452.515C453.749 70.5587 454.537 70.5827 454.881 70.6296C455.559 70.7119 456.167 70.8843 456.702 71.1452C457.237 71.4051 457.722 71.7691 458.161 72.24C458.597 72.7108 458.974 73.2734 459.291 73.9348C459.609 74.5947 459.854 75.3546 460.026 76.2134C460.198 77.0748 460.283 78.016 460.283 79.039C460.283 81.2415 459.945 83.1963 459.27 84.9024C458.593 86.6082 457.743 87.963 456.719 88.9682C455.935 89.7478 454.922 90.3239 453.681 90.6972C452.978 90.9015 451.898 91.0024 450.441 91.0024H444.645Z" stroke="#F2F2F2" stroke-width="0.4"/>
</svg>
