<svg width="464" height="103" viewBox="0 0 464 103" fill="none" xmlns="http://www.w3.org/2000/svg">
<path d="M461.929 78.2519C461.929 90.544 453.484 100.607 443.159 100.607H21.4349C11.1145 100.607 2.66663 90.544 2.66663 78.2519V24.3667C2.66663 12.076 11.1145 2.01738 21.4349 2.01738H443.159C453.484 2.01738 461.929 12.076 461.929 24.3667V78.2519Z" stroke="#F2F2F2" stroke-width="4"/>
<path d="M452.125 50.8546H14.7604" stroke="#F2F2F2" stroke-width="4"/>
<path d="M133.904 9.69066V92.8201" stroke="#F2F2F2" stroke-width="4"/>
<path d="M12.6609 30.596L15.8781 30.3867C15.9234 31.6613 16.0984 32.5213 16.4046 32.968C16.8984 33.6933 17.8098 34.0546 19.1406 34.0546C20.2469 34.0546 21.0464 33.8093 21.5396 33.3146C22.0333 32.8226 22.2792 32.228 22.2792 31.532C22.2792 30.9266 22.0776 30.416 21.674 29.996C21.3901 29.6906 20.6104 29.1933 19.3364 28.504C18.0625 27.816 17.1312 27.2426 16.5448 26.7826C15.9584 26.3213 15.4969 25.7253 15.1609 24.9906C14.8245 24.256 14.6562 23.396 14.6562 22.4106C14.6562 20.6906 15.1568 19.2626 16.1584 18.1293C17.1593 16.9946 18.6093 16.428 20.5084 16.428C22.436 16.428 23.9292 16.9906 24.9869 18.116C26.0442 19.2413 26.6254 20.7373 26.7306 22.6053L23.4901 22.7867C23.4084 21.8107 23.1245 21.0626 22.638 20.5413C22.1526 20.0213 21.4349 19.76 20.486 19.76C19.5516 19.76 18.8844 19.9653 18.4844 20.3746C18.0849 20.784 17.8849 21.3 17.8849 21.9213C17.8849 22.508 18.0677 22.992 18.4344 23.372C18.8 23.7626 19.6114 24.2986 20.8672 24.976C22.7578 25.9893 23.9609 26.812 24.4765 27.4453C25.2469 28.3746 25.6312 29.5693 25.6312 31.0293C25.6312 32.832 25.0578 34.3733 23.9109 35.6508C22.7636 36.9294 21.1661 37.5696 19.1177 37.5696C17.7057 37.5696 16.4817 37.2732 15.4469 36.6841C14.4114 36.0936 13.6806 35.2732 13.2546 34.2226C12.8286 33.172 12.6306 31.964 12.6609 30.596Z" fill="#F2F2F2"/>
<path d="M12.6609 30.596L15.8781 30.3867C15.9234 31.6613 16.0984 32.5213 16.4046 32.968C16.8984 33.6933 17.8098 34.0546 19.1406 34.0546C20.2469 34.0546 21.0464 33.8093 21.5396 33.3146C22.0333 32.8226 22.2792 32.228 22.2792 31.532C22.2792 30.9266 22.0776 30.416 21.674 29.996C21.3901 29.6906 20.6104 29.1933 19.3364 28.504C18.0625 27.816 17.1312 27.2426 16.5448 26.7826C15.9584 26.3213 15.4969 25.7253 15.1609 24.9906C14.8245 24.256 14.6562 23.396 14.6562 22.4106C14.6562 20.6906 15.1568 19.2626 16.1584 18.1293C17.1593 16.9946 18.6093 16.428 20.5084 16.428C22.436 16.428 23.9292 16.9906 24.9869 18.116C26.0442 19.2413 26.6254 20.7373 26.7306 22.6053L23.4901 22.7867C23.4084 21.8107 23.1245 21.0626 22.638 20.5413C22.1526 20.0213 21.4349 19.76 20.486 19.76C19.5516 19.76 18.8844 19.9653 18.4844 20.3746C18.0849 20.784 17.8849 21.3 17.8849 21.9213C17.8849 22.508 18.0677 22.992 18.4344 23.372C18.8 23.7626 19.6114 24.2986 20.8672 24.976C22.7578 25.9893 23.9609 26.812 24.4765 27.4453C25.2469 28.3746 25.6312 29.5693 25.6312 31.0293C25.6312 32.832 25.0578 34.3733 23.9109 35.6508C22.7636 36.9294 21.1661 37.5696 19.1177 37.5696C17.7057 37.5696 16.4817 37.2732 15.4469 36.6841C14.4114 36.0936 13.6806 35.2732 13.2546 34.2226C12.8286 33.172 12.6306 31.964 12.6609 30.596Z" stroke="#F2F2F2" stroke-width="0.4"/>
<path d="M31.6302 37.2202L35.0713 16.776H38.4458L35.0156 37.2202H31.6302Z" fill="#F2F2F2"/>
<path d="M31.6302 37.2202L35.0713 16.776H38.4458L35.0156 37.2202H31.6302Z" stroke="#F2F2F2" stroke-width="0.4"/>
<path d="M55.151 37.2202H52.0016L47.5614 23.484L45.2521 37.2202H42.1016L45.5322 16.776H48.6937L53.1448 30.4573L55.4426 16.776H58.5817L55.151 37.2202Z" fill="#F2F2F2"/>
<path d="M55.151 37.2202H52.0016L47.5614 23.484L45.2521 37.2202H42.1016L45.5322 16.776H48.6937L53.1448 30.4573L55.4426 16.776H58.5817L55.151 37.2202Z" stroke="#F2F2F2" stroke-width="0.4"/>
<path d="M72.7978 29.3L71.8453 21.072L67.876 29.3H72.7978ZM73.213 32.7013H66.6989L64.726 37.2202H61.2505L70.5442 16.776H74.3L76.9682 37.2202H73.762L73.213 32.7013Z" fill="#F2F2F2"/>
<path d="M72.7978 29.3L71.8453 21.072L67.876 29.3H72.7978ZM73.213 32.7013H66.6989L64.726 37.2202H61.2505L70.5442 16.776H74.3L76.9682 37.2202H73.762L73.213 32.7013Z" stroke="#F2F2F2" stroke-width="0.4"/>
<path d="M91.8803 37.2202H88.674L88.0797 20.1374L85.4677 37.2202H82.4183L85.8489 16.776H90.6693L91.174 31.0987L96.7792 16.776H101.656L98.214 37.2202H95.1312L98.3708 20.2627L91.8803 37.2202Z" fill="#F2F2F2"/>
<path d="M91.8803 37.2202H88.674L88.0797 20.1374L85.4677 37.2202H82.4183L85.8489 16.776H90.6693L91.174 31.0987L96.7792 16.776H101.656L98.214 37.2202H95.1312L98.3708 20.2627L91.8803 37.2202Z" stroke="#F2F2F2" stroke-width="0.4"/>
<path d="M114.864 37.2202H111.657L111.063 20.1374L108.451 37.2202H105.401L108.832 16.776H113.653L114.157 31.0987L119.763 16.776H124.64L121.197 37.2202H118.115L121.354 20.2627L114.864 37.2202Z" fill="#F2F2F2"/>
<path d="M114.864 37.2202H111.657L111.063 20.1374L108.451 37.2202H105.401L108.832 16.776H113.653L114.157 31.0987L119.763 16.776H124.64L121.197 37.2202H118.115L121.354 20.2627L114.864 37.2202Z" stroke="#F2F2F2" stroke-width="0.4"/>
<path d="M141.857 85.4331L145.288 64.9894H157.473L156.903 68.4066H148.101L147.317 73.0508H155.827L155.253 76.468H146.745L145.713 82.0175H155.277L154.693 85.4331H141.857Z" fill="#F2F2F2"/>
<path d="M141.857 85.4331L145.288 64.9894H157.473L156.903 68.4066H148.101L147.317 73.0508H155.827L155.253 76.468H146.745L145.713 82.0175H155.277L154.693 85.4331H141.857Z" stroke="#F2F2F2" stroke-width="0.4"/>
<path d="M173.249 85.4331H170.1L165.66 71.6988L163.351 85.4331H160.2L163.631 64.9894H166.792L171.243 78.6707L173.541 64.9894H176.68L173.249 85.4331Z" fill="#F2F2F2"/>
<path d="M173.249 85.4331H170.1L165.66 71.6988L163.351 85.4331H160.2L163.631 64.9894H166.792L171.243 78.6707L173.541 64.9894H176.68L173.249 85.4331Z" stroke="#F2F2F2" stroke-width="0.4"/>
<path d="M188.319 74.5149H195.673L194.193 83.2868C193.327 83.9827 192.263 84.5748 191.004 85.0571C189.745 85.5399 188.461 85.7827 187.153 85.7827C185.12 85.7827 183.561 85.2106 182.477 84.068C180.999 82.5054 180.259 80.2425 180.259 77.2758C180.259 75.2868 180.576 73.38 181.212 71.5587C181.973 69.3655 183.057 67.6628 184.463 66.4545C185.867 65.2467 187.519 64.6425 189.417 64.6425C191.316 64.6425 192.839 65.1909 193.987 66.2868C195.133 67.3841 195.893 68.9827 196.268 71.0852L193.117 71.5305C192.84 70.3773 192.393 69.5081 191.777 68.9227C191.161 68.3373 190.385 68.044 189.451 68.044C188.36 68.044 187.359 68.3972 186.447 69.104C185.535 69.8106 184.821 70.9029 184.305 72.3816C183.789 73.8603 183.532 75.4732 183.532 77.2201C183.532 78.9399 183.845 80.2107 184.473 81.0331C185.101 81.8576 186.021 82.268 187.232 82.268C187.956 82.268 188.7 82.1415 189.463 81.8852C190.224 81.6295 190.883 81.3237 191.436 80.9721L191.94 77.9305H187.748L188.319 74.5149Z" fill="#F2F2F2"/>
<path d="M188.319 74.5149H195.673L194.193 83.2868C193.327 83.9827 192.263 84.5748 191.004 85.0571C189.745 85.5399 188.461 85.7827 187.153 85.7827C185.12 85.7827 183.561 85.2106 182.477 84.068C180.999 82.5054 180.259 80.2425 180.259 77.2758C180.259 75.2868 180.576 73.38 181.212 71.5587C181.973 69.3655 183.057 67.6628 184.463 66.4545C185.867 65.2467 187.519 64.6425 189.417 64.6425C191.316 64.6425 192.839 65.1909 193.987 66.2868C195.133 67.3841 195.893 68.9827 196.268 71.0852L193.117 71.5305C192.84 70.3773 192.393 69.5081 191.777 68.9227C191.161 68.3373 190.385 68.044 189.451 68.044C188.36 68.044 187.359 68.3972 186.447 69.104C185.535 69.8106 184.821 70.9029 184.305 72.3816C183.789 73.8603 183.532 75.4732 183.532 77.2201C183.532 78.9399 183.845 80.2107 184.473 81.0331C185.101 81.8576 186.021 82.268 187.232 82.268C187.956 82.268 188.7 82.1415 189.463 81.8852C190.224 81.6295 190.883 81.3237 191.436 80.9721L191.94 77.9305H187.748L188.319 74.5149Z" stroke="#F2F2F2" stroke-width="0.4"/>
<path d="M199.823 85.4331L203.264 64.9894H206.639L203.208 85.4331H199.823Z" fill="#F2F2F2"/>
<path d="M199.823 85.4331L203.264 64.9894H206.639L203.208 85.4331H199.823Z" stroke="#F2F2F2" stroke-width="0.4"/>
<path d="M222.885 85.4331H219.735L215.295 71.6988L212.985 85.4331H209.835L213.267 64.9894H216.428L220.879 78.6707L223.176 64.9894H226.316L222.885 85.4331Z" fill="#F2F2F2"/>
<path d="M222.885 85.4331H219.735L215.295 71.6988L212.985 85.4331H209.835L213.267 64.9894H216.428L220.879 78.6707L223.176 64.9894H226.316L222.885 85.4331Z" stroke="#F2F2F2" stroke-width="0.4"/>
<path d="M229.724 85.4331L233.156 64.9894H245.343L244.771 68.4066H235.971L235.185 73.0508H243.695L243.123 76.468H234.613L233.581 82.0175H243.144L242.561 85.4331H229.724Z" fill="#F2F2F2"/>
<path d="M229.724 85.4331L233.156 64.9894H245.343L244.771 68.4066H235.971L235.185 73.0508H243.695L243.123 76.468H234.613L233.581 82.0175H243.144L242.561 85.4331H229.724Z" stroke="#F2F2F2" stroke-width="0.4"/>
<path d="M247.519 85.4331L250.949 64.9894H263.136L262.564 68.4066H253.763L252.979 73.0508H261.488L260.916 76.468H252.407L251.375 82.0175H260.939L260.356 85.4331H247.519Z" fill="#F2F2F2"/>
<path d="M247.519 85.4331L250.949 64.9894H263.136L262.564 68.4066H253.763L252.979 73.0508H261.488L260.916 76.468H252.407L251.375 82.0175H260.939L260.356 85.4331H247.519Z" stroke="#F2F2F2" stroke-width="0.4"/>
<path d="M270.865 73.9014H272.659C274.475 73.9014 275.681 73.7664 276.275 73.4962C276.869 73.227 277.335 72.8055 277.671 72.2279C278.007 71.6508 278.176 71.0467 278.176 70.416C278.176 69.6707 277.932 69.1134 277.447 68.7415C277.147 68.5186 276.501 68.4066 275.507 68.4066H271.785L270.865 73.9014ZM268.925 85.4331H265.54L268.981 64.9894H276.281C277.536 64.9894 278.513 65.1508 279.212 65.4722C279.912 65.792 280.475 66.38 280.905 67.2363C281.335 68.0904 281.549 69.1279 281.549 70.3451C281.549 72.0842 281.132 73.5186 280.295 74.6467C279.457 75.7774 278.191 76.4759 276.493 76.7467C276.927 77.2295 277.335 77.8655 277.716 78.656C278.471 80.2546 279.311 82.515 280.239 85.4331H276.605C276.313 84.2816 275.743 82.4816 274.891 80.0358C274.427 78.7175 273.933 77.8295 273.411 77.3732C273.089 77.104 272.528 76.9696 271.729 76.9696H270.351L268.925 85.4331Z" fill="#F2F2F2"/>
<path d="M270.865 73.9014H272.659C274.475 73.9014 275.681 73.7664 276.275 73.4962C276.869 73.227 277.335 72.8055 277.671 72.2279C278.007 71.6508 278.176 71.0467 278.176 70.416C278.176 69.6707 277.932 69.1134 277.447 68.7415C277.147 68.5186 276.501 68.4066 275.507 68.4066H271.785L270.865 73.9014ZM268.925 85.4331H265.54L268.981 64.9894H276.281C277.536 64.9894 278.513 65.1508 279.212 65.4722C279.912 65.792 280.475 66.38 280.905 67.2363C281.335 68.0904 281.549 69.1279 281.549 70.3451C281.549 72.0842 281.132 73.5186 280.295 74.6467C279.457 75.7774 278.191 76.4759 276.493 76.7467C276.927 77.2295 277.335 77.8655 277.716 78.656C278.471 80.2546 279.311 82.515 280.239 85.4331H276.605C276.313 84.2816 275.743 82.4816 274.891 80.0358C274.427 78.7175 273.933 77.8295 273.411 77.3732C273.089 77.104 272.528 76.9696 271.729 76.9696H270.351L268.925 85.4331Z" stroke="#F2F2F2" stroke-width="0.4"/>
<path d="M284.848 85.4331L288.289 64.9894H291.664L288.233 85.4331H284.848Z" fill="#F2F2F2"/>
<path d="M284.848 85.4331L288.289 64.9894H291.664L288.233 85.4331H284.848Z" stroke="#F2F2F2" stroke-width="0.4"/>
<path d="M307.451 85.4331H304.301L299.861 71.6988L297.551 85.4331H294.401L297.832 64.9894H300.993L305.444 78.6707L307.743 64.9894H310.88L307.451 85.4331Z" fill="#F2F2F2"/>
<path d="M307.451 85.4331H304.301L299.861 71.6988L297.551 85.4331H294.401L297.832 64.9894H300.993L305.444 78.6707L307.743 64.9894H310.88L307.451 85.4331Z" stroke="#F2F2F2" stroke-width="0.4"/>
<path d="M323.437 74.5149H330.792L329.312 83.2868C328.445 83.9827 327.381 84.5748 326.123 85.0571C324.863 85.5399 323.58 85.7827 322.272 85.7827C320.239 85.7827 318.68 85.2106 317.596 84.068C316.117 82.5054 315.376 80.2425 315.376 77.2758C315.376 75.2868 315.695 73.38 316.329 71.5587C317.092 69.3655 318.176 67.6628 319.581 66.4545C320.985 65.2467 322.639 64.6425 324.536 64.6425C326.435 64.6425 327.957 65.1909 329.104 66.2868C330.251 67.3841 331.012 68.9827 331.385 71.0852L328.236 71.5305C327.96 70.3773 327.513 69.5081 326.896 68.9227C326.28 68.3373 325.504 68.044 324.571 68.044C323.477 68.044 322.476 68.3972 321.565 69.104C320.653 69.8106 319.94 70.9029 319.424 72.3816C318.909 73.8603 318.651 75.4732 318.651 77.2201C318.651 78.9399 318.965 80.2107 319.592 81.0331C320.22 81.8576 321.139 82.268 322.351 82.268C323.076 82.268 323.819 82.1415 324.581 81.8852C325.344 81.6295 326.001 81.3237 326.555 80.9721L327.059 77.9305H322.865L323.437 74.5149Z" fill="#F2F2F2"/>
<path d="M323.437 74.5149H330.792L329.312 83.2868C328.445 83.9827 327.381 84.5748 326.123 85.0571C324.863 85.5399 323.58 85.7827 322.272 85.7827C320.239 85.7827 318.68 85.2106 317.596 84.068C316.117 82.5054 315.376 80.2425 315.376 77.2758C315.376 75.2868 315.695 73.38 316.329 71.5587C317.092 69.3655 318.176 67.6628 319.581 66.4545C320.985 65.2467 322.639 64.6425 324.536 64.6425C326.435 64.6425 327.957 65.1909 329.104 66.2868C330.251 67.3841 331.012 68.9827 331.385 71.0852L328.236 71.5305C327.96 70.3773 327.513 69.5081 326.896 68.9227C326.28 68.3373 325.504 68.044 324.571 68.044C323.477 68.044 322.476 68.3972 321.565 69.104C320.653 69.8106 319.94 70.9029 319.424 72.3816C318.909 73.8603 318.651 75.4732 318.651 77.2201C318.651 78.9399 318.965 80.2107 319.592 81.0331C320.22 81.8576 321.139 82.268 322.351 82.268C323.076 82.268 323.819 82.1415 324.581 81.8852C325.344 81.6295 326.001 81.3237 326.555 80.9721L327.059 77.9305H322.865L323.437 74.5149Z" stroke="#F2F2F2" stroke-width="0.4"/>
<path d="M340.867 85.4331L344.308 64.9894H347.684L344.824 82.0175H353.189L352.616 85.4331H340.867Z" fill="#F2F2F2"/>
<path d="M340.867 85.4331L344.308 64.9894H347.684L344.824 82.0175H353.189L352.616 85.4331H340.867Z" stroke="#F2F2F2" stroke-width="0.4"/>
<path d="M358.353 85.4331L361.796 64.9894H365.169L361.74 85.4331H358.353Z" fill="#F2F2F2"/>
<path d="M358.353 85.4331L361.796 64.9894H365.169L361.74 85.4331H358.353Z" stroke="#F2F2F2" stroke-width="0.4"/>
<path d="M378.255 85.4331H375.049L374.456 68.3508L371.844 85.4331H368.795L372.224 64.9894H377.045L377.549 79.3118L383.155 64.9894H388.031L384.589 85.4331H381.507L384.748 68.4759L378.255 85.4331Z" fill="#F2F2F2"/>
<path d="M378.255 85.4331H375.049L374.456 68.3508L371.844 85.4331H368.795L372.224 64.9894H377.045L377.549 79.3118L383.155 64.9894H388.031L384.589 85.4331H381.507L384.748 68.4759L378.255 85.4331Z" stroke="#F2F2F2" stroke-width="0.4"/>
<path d="M391.251 85.4331L394.695 64.9894H398.068L394.639 85.4331H391.251Z" fill="#F2F2F2"/>
<path d="M391.251 85.4331L394.695 64.9894H398.068L394.639 85.4331H391.251Z" stroke="#F2F2F2" stroke-width="0.4"/>
<path d="M408.396 85.4331H405.011L407.88 68.4066H403.06L403.632 64.9894H416.581L416.009 68.4066H411.255L408.396 85.4331Z" fill="#F2F2F2"/>
<path d="M408.396 85.4331H405.011L407.88 68.4066H403.06L403.632 64.9894H416.581L416.009 68.4066H411.255L408.396 85.4331Z" stroke="#F2F2F2" stroke-width="0.4"/>
<path d="M419.195 85.4331L422.625 64.9894H434.811L434.24 68.4066H425.439L424.653 73.0508H433.163L432.591 76.468H424.083L423.051 82.0175H432.613L432.031 85.4331H419.195Z" fill="#F2F2F2"/>
<path d="M419.195 85.4331L422.625 64.9894H434.811L434.24 68.4066H425.439L424.653 73.0508H433.163L432.591 76.468H424.083L423.051 82.0175H432.613L432.031 85.4331H419.195Z" stroke="#F2F2F2" stroke-width="0.4"/>
<path d="M441.277 82.1426H442.993C444.233 82.1426 445.133 82.0483 445.689 81.8576C446.247 81.6664 446.756 81.3107 447.22 80.7904C447.885 80.0358 448.445 79.0322 448.901 77.7774C449.357 76.5243 449.584 75.044 449.584 73.344C449.584 71.8936 449.396 70.804 449.02 70.0732C448.641 69.344 448.176 68.8587 447.624 68.616C447.235 68.4483 446.543 68.3655 445.549 68.3655H443.587L441.277 82.1426ZM437.343 85.4331L440.785 64.9894H445.213C446.447 64.9894 447.235 65.0134 447.579 65.0603C448.257 65.1426 448.865 65.315 449.4 65.5759C449.935 65.8358 450.42 66.1998 450.859 66.6707C451.295 67.1415 451.672 67.704 451.989 68.3655C452.307 69.0254 452.552 69.7852 452.724 70.644C452.896 71.5055 452.981 72.4467 452.981 73.4696C452.981 75.6722 452.643 77.627 451.968 79.3331C451.291 81.0388 450.441 82.3936 449.417 83.3988C448.633 84.1784 447.62 84.7546 446.379 85.1279C445.676 85.3322 444.596 85.4331 443.139 85.4331H437.343Z" fill="#F2F2F2"/>
<path d="M441.277 82.1426H442.993C444.233 82.1426 445.133 82.0483 445.689 81.8576C446.247 81.6664 446.756 81.3107 447.22 80.7904C447.885 80.0358 448.445 79.0322 448.901 77.7774C449.357 76.5243 449.584 75.044 449.584 73.344C449.584 71.8936 449.396 70.804 449.02 70.0732C448.641 69.344 448.176 68.8587 447.624 68.616C447.235 68.4483 446.543 68.3655 445.549 68.3655H443.587L441.277 82.1426ZM437.343 85.4331L440.785 64.9894H445.213C446.447 64.9894 447.235 65.0134 447.579 65.0603C448.257 65.1426 448.865 65.315 449.4 65.5759C449.935 65.8358 450.42 66.1998 450.859 66.6707C451.295 67.1415 451.672 67.704 451.989 68.3655C452.307 69.0254 452.552 69.7852 452.724 70.644C452.896 71.5055 452.981 72.4467 452.981 73.4696C452.981 75.6722 452.643 77.627 451.968 79.3331C451.291 81.0388 450.441 82.3936 449.417 83.3988C448.633 84.1784 447.62 84.7546 446.379 85.1279C445.676 85.3322 444.596 85.4331 443.139 85.4331H437.343Z" stroke="#F2F2F2" stroke-width="0.4"/>
</svg>
